<svg xmlns="http://www.w3.org/2000/svg" width="128.1200" height="80.4104" viewBox="0 0 128.1200 80.4104">
<path d="M 39.3049 38.2910 L 39.3049 26.2047 L 27.2186 26.2047 L 27.2186 38.2910 L 39.3049 38.2910 Z" style="fill:#edab0d;fill-rule:evenodd;stroke:none"/>
<path d="M 41.9604 66.3956 L 12.4523 66.3956 C 9.0836 66.3956 5.0468 66.2641 2.7150 63.4379 C 0.1976 60.3870 0.0000 55.0641 0.0000 51.2674 L 0.0000 15.5353 C 0.0000 11.7385 0.1976 6.4156 2.7150 3.3647 C 5.0468 0.5386 9.0836 0.4073 12.4523 0.4073 L 52.0880 0.4073 C 55.4567 0.4073 59.4933 0.5386 61.8250 3.3647 C 64.3425 6.4156 64.5401 11.7385 64.5401 15.5353 L 64.5401 51.2674 C 64.5401 55.0638 64.3422 60.3873 61.8250 63.4379 C 60.2328 65.3678 57.8506 66.0350 55.4545 66.2703 L 53.8807 66.4248 L 63.3217 79.2391 C 63.4054 79.3528 63.4175 79.4939 63.3546 79.6201 C 63.2917 79.7465 63.1718 79.8216 63.0306 79.8230 L 51.9585 79.9421 C 51.8358 79.9435 51.7295 79.8899 51.6575 79.7904 L 41.9604 66.3956 Z M 46.0854 55.8448 L 53.8211 55.8448 L 53.8211 10.9583 L 10.7189 10.9583 L 10.7189 55.8448 L 34.3225 55.8448 L 30.0815 49.9867 C 29.9988 49.8725 29.9877 49.7310 30.0521 49.6052 C 30.1161 49.4796 30.2369 49.4053 30.3781 49.4053 L 41.1466 49.3931 C 41.2671 49.3931 41.3708 49.4456 41.4422 49.5425 L 46.0854 55.8448 Z" style="fill:#727271;fill-rule:evenodd;stroke:none"/>
<path d="M 52.9101 78.8017 L 63.9822 78.6827 L 54.1585 65.3491 L 56.3743 65.1316 C 58.6650 64.9069 60.9715 64.2807 62.4977 62.4308 C 64.9485 59.4607 65.1291 54.1596 65.1291 50.4935 L 65.1291 14.7614 C 65.1291 11.0951 64.9488 5.7946 62.4977 2.8241 C 60.2527 0.1032 56.2714 0.0000 53.0436 0.0000 L 13.4076 0.0000 C 10.1798 0.0000 6.1985 0.1029 3.9535 2.8241 C 1.5024 5.7946 1.3221 11.0951 1.3221 14.7614 L 1.3221 50.4935 C 1.3221 54.1599 1.5024 59.4604 3.9535 62.4308 C 6.1985 65.1518 10.1798 65.2550 13.4076 65.2550 L 43.1031 65.2550 L 52.9101 78.8017 Z M 42.1024 48.9858 L 31.3342 48.9980 L 35.9958 55.4374 L 11.3080 55.4374 L 11.3080 9.8175 L 55.1432 9.8175 L 55.1432 55.4374 L 46.8558 55.4374 L 42.1024 48.9858 Z" style="fill:#edab0d;fill-rule:evenodd;stroke:none"/>
<path d="M 127.7569 80.4104 L 127.7569 78.7017 L 70.4072 78.7017 L 70.4072 80.4104 L 127.7569 80.4104 Z" style="fill:#727271;stroke:none"/>
<path d="M 128.1200 80.0470 L 128.1200 78.3385 L 70.7703 78.3385 L 70.7703 80.0470 L 128.1200 80.0470 Z" style="fill:#edab0d;stroke:none"/>
</svg>
