<svg xmlns="http://www.w3.org/2000/svg" width="168.2328" height="130.3050" viewBox="0 0 168.2328 130.3050">
<path d="M 168.2328 85.3359 L 168.2328 83.6734 L 59.7861 83.6734 L 59.7861 85.3359 L 168.2328 85.3359 Z" style="fill:#edab0d;stroke:none"/>
<path d="M 44.4801 65.0237 L 44.4801 59.1446 L 38.6008 59.1446 L 38.6008 65.0237 L 44.4801 65.0237 Z" style="fill:#edab0d;fill-rule:evenodd;stroke:none"/>
<path d="M 18.5584 54.7053 L 18.5584 56.4180 L 22.7982 56.4180 L 22.7982 55.6625 C 22.7982 54.7557 22.7580 52.5393 21.7582 51.2799 C 20.7984 50.1214 18.9584 49.9700 17.9586 49.9700 L 5.5196 49.9700 C 4.6797 49.9700 2.9197 50.0709 1.9599 51.1793 C 0.8399 52.4889 0.8399 55.0075 0.8399 56.1158 L 0.8399 58.8864 C 0.8399 59.9947 0.8399 62.5133 1.9599 63.8232 C 2.9197 64.9313 4.7597 65.0322 5.4797 65.0322 L 18.8385 65.0322 L 18.8385 71.2281 L 4.2395 71.2281 L 4.2395 69.2527 L 0.0423 69.2527 L 0.0000 69.2635 L 0.0000 69.8176 C 0.0000 70.9260 0.0000 73.3439 1.1200 74.7040 C 2.1198 75.9130 3.9198 75.9634 4.7996 75.9634 L 18.5185 75.9634 C 19.1585 75.9634 20.9583 75.8628 21.9583 74.7040 C 22.7180 73.7972 23.0780 72.0845 23.0780 70.5229 L 23.0780 65.8381 C 23.0780 64.1254 22.7180 62.4631 21.9583 61.5563 C 20.9583 60.3474 19.1985 60.2969 17.9184 60.2969 L 5.0797 60.2969 L 5.0797 54.7053 L 18.5584 54.7053 Z" style="fill:#fefefe;stroke:none"/>
<path d="M 66.1788 49.9700 L 61.3792 49.9700 L 61.3792 69.8176 C 61.3792 70.9260 61.3792 73.3439 62.4991 74.7040 C 63.4992 75.9130 65.1790 75.9634 66.4988 75.9634 L 79.5376 75.9634 C 80.8577 75.9634 82.5375 75.9130 83.5373 74.7040 C 84.6573 73.3439 84.6573 70.9260 84.6573 69.8176 L 84.6573 49.9700 L 79.8577 49.9700 L 79.8577 71.2281 L 66.1788 71.2281 L 66.1788 49.9700 Z" style="fill:#fefefe;stroke:none"/>
<path d="M 97.4098 49.9700 L 85.7308 75.9634 L 90.5703 75.9634 L 92.9302 70.3213 L 106.0489 70.3213 L 108.4887 75.9634 L 113.8884 75.9634 L 102.0492 49.9700 L 97.4098 49.9700 Z M 94.8901 65.5864 L 99.5295 55.0075 L 104.0091 65.5864 L 94.8901 65.5864 Z" style="fill:#fefefe;stroke:none"/>
<path d="M 115.0019 49.9700 L 115.0019 75.9634 L 119.8015 75.9634 L 119.8015 66.1402 L 124.3211 66.1402 L 132.6405 75.9634 L 139.5199 75.9634 L 130.0006 66.1402 L 132.8003 66.1402 C 133.7202 66.1402 135.3600 66.0396 136.3201 64.9817 C 136.8800 64.3774 137.4398 63.2186 137.4398 61.2037 L 137.4398 55.0075 C 137.4398 53.9498 137.3599 52.1867 136.1999 51.0279 C 135.2401 50.0709 133.7601 49.9700 132.8003 49.9700 L 115.0019 49.9700 Z M 130.7206 54.4031 C 130.9204 54.4031 131.7203 54.4031 132.1203 54.8062 C 132.6405 55.3099 132.6405 56.0653 132.6405 56.4684 L 132.6405 59.6421 C 132.6405 60.0449 132.6405 60.8006 132.1203 61.3043 C 131.7603 61.6068 131.1205 61.7074 130.8005 61.7074 L 119.8015 61.7074 L 119.8015 54.4031 L 130.7206 54.4031 Z" style="fill:#fefefe;stroke:none"/>
<path d="M 141.5931 49.9700 L 141.5931 75.9634 L 162.9114 75.9634 L 162.9114 71.2281 L 146.3927 71.2281 L 146.3927 64.6291 L 155.9120 64.6291 L 155.9120 60.1963 L 146.3927 60.1963 L 146.3927 54.4031 L 162.7112 54.4031 L 162.7112 49.9700 L 141.5931 49.9700 Z" style="fill:#fefefe;stroke:none"/>
<path d="M 46.1517 69.6104 L 39.3982 69.6178 L 41.6648 72.7489 L 40.4572 72.7489 L 31.4768 72.7489 L 31.4768 51.7887 L 51.5690 51.7887 L 51.5690 72.7489 L 48.4642 72.7489 L 46.1517 69.6104 Z M 46.0134 78.7558 L 50.7864 85.3489 L 57.6927 85.2747 L 52.8435 78.6929 C 54.0972 78.5699 55.3697 78.2090 56.2368 77.1582 C 57.6593 75.4345 57.6576 72.3657 57.6576 70.9597 L 57.6576 53.5779 C 57.6576 52.1722 57.6576 49.1049 56.2368 47.3794 C 54.9683 45.8459 52.8375 45.7818 51.1631 45.7818 L 31.8827 45.7818 C 30.2083 45.7818 28.0772 45.8459 26.8087 47.3794 C 25.3882 49.1049 25.3882 52.1722 25.3882 53.5779 L 25.3882 70.9597 C 25.3882 72.3657 25.3882 75.4328 26.8087 77.1582 C 28.0772 78.6921 30.2083 78.7558 31.8827 78.7558 L 42.6390 78.7558 L 46.0134 78.7558 Z" style="fill:#edab0d;fill-rule:evenodd;stroke:none"/>
<path d="M 18.7234 0.0000 L 148.3832 0.0000 L 148.3832 44.0379 L 147.0923 44.0379 L 147.0923 1.2906 L 19.3686 1.2906 L 19.3686 44.0379 L 18.0780 44.0379 L 18.0780 0.0000 L 18.7234 0.0000 Z M 148.3832 80.2854 L 148.3832 82.9264 L 147.0923 82.9264 L 147.0923 80.2854 L 148.3832 80.2854 Z M 148.3832 86.0825 L 148.3832 130.3050 L 18.0780 130.3050 L 18.0780 80.2854 L 19.3686 80.2854 L 19.3686 129.0144 L 147.0923 129.0144 L 147.0923 86.0825 L 148.3832 86.0825 Z" style="fill:#edab0d;stroke:none"/>
</svg>
