<svg xmlns="http://www.w3.org/2000/svg" width="128.1200" height="80.4104" viewBox="0 0 128.1200 80.4104">
<path d="M 39.3049 38.2910 L 39.3049 26.2046 L 27.2186 26.2046 L 27.2186 38.2910 L 39.3049 38.2910 Z" style="fill:#edab0d;fill-rule:evenodd;stroke:none"/>
<path d="M 41.9604 66.3956 L 12.4523 66.3956 C 9.0836 66.3956 5.0468 66.2644 2.7150 63.4383 C 0.1976 60.3873 0.0000 55.0644 0.0000 51.2677 L 0.0000 15.5356 C 0.0000 11.7389 0.1976 6.4160 2.7150 3.3650 C 5.0468 0.5389 9.0836 0.4076 12.4523 0.4076 L 52.0880 0.4076 C 55.4567 0.4076 59.4933 0.5389 61.8250 3.3650 C 64.3425 6.4160 64.5401 11.7389 64.5401 15.5356 L 64.5401 51.2677 C 64.5401 55.0642 64.3422 60.3876 61.8250 63.4383 C 60.2328 65.3678 57.8506 66.0354 55.4545 66.2706 L 53.8807 66.4251 L 63.3217 79.2394 C 63.4054 79.3531 63.4175 79.4943 63.3546 79.6204 C 63.2917 79.7465 63.1718 79.8219 63.0306 79.8234 L 51.9585 79.9424 C 51.8358 79.9436 51.7295 79.8903 51.6575 79.7908 L 41.9604 66.3956 Z M 46.0854 55.8448 L 53.8211 55.8448 L 53.8211 10.9582 L 10.7189 10.9582 L 10.7189 55.8448 L 34.3225 55.8448 L 30.0815 49.9870 C 29.9988 49.8725 29.9877 49.7313 30.0521 49.6055 C 30.1161 49.4799 30.2369 49.4056 30.3781 49.4053 L 41.1466 49.3934 C 41.2671 49.3934 41.3708 49.4456 41.4422 49.5425 L 46.0854 55.8448 Z" style="fill:#1c1b17;fill-rule:evenodd;stroke:none"/>
<path d="M 52.9101 78.8018 L 63.9822 78.6830 L 54.1585 65.3494 L 56.3743 65.1320 C 58.6650 64.9069 60.9715 64.2810 62.4977 62.4311 C 64.9485 59.4610 65.1291 54.1596 65.1291 50.4939 L 65.1291 14.7617 C 65.1291 11.0954 64.9488 5.7949 62.4977 2.8242 C 60.2527 0.1032 56.2714 0.0000 53.0436 0.0000 L 13.4076 0.0000 C 10.1798 0.0000 6.1985 0.1032 3.9535 2.8242 C 1.5024 5.7949 1.3221 11.0954 1.3221 14.7617 L 1.3221 50.4939 C 1.3221 54.1602 1.5024 59.4607 3.9535 62.4311 C 6.1985 65.1521 10.1798 65.2553 13.4076 65.2553 L 43.1031 65.2553 L 52.9101 78.8018 Z M 42.1024 48.9861 L 31.3342 48.9980 L 35.9958 55.4375 L 11.3080 55.4375 L 11.3080 9.8178 L 55.1432 9.8178 L 55.1432 55.4375 L 46.8558 55.4375 L 42.1024 48.9861 Z" style="fill:#edab0d;fill-rule:evenodd;stroke:none"/>
<path d="M 127.7569 80.4104 L 127.7569 78.7017 L 70.4072 78.7017 L 70.4072 80.4104 L 127.7569 80.4104 Z" style="fill:#1c1b17;stroke:none"/>
<path d="M 128.1200 80.0473 L 128.1200 78.3386 L 70.7703 78.3386 L 70.7703 80.0473 L 128.1200 80.0473 Z" style="fill:#edab0d;stroke:none"/>
</svg>
